<svg width="243" height="230" viewBox="0 0 243 230" fill="none" xmlns="http://www.w3.org/2000/svg">
    <defs>
        <filter id="filter0_bi_701:49" x="21.1606" y="-4" width="179.566" height="143.038" filterUnits="userSpaceOnUse" color-interpolation-filters="sRGB">
            <feFlood flood-opacity="0" result="BackgroundImageFix"/>
            <feGaussianBlur in="BackgroundImage" stdDeviation="2"/>
            <feComposite in2="SourceAlpha" operator="in" result="effect1_backgroundBlur_701:49"/>
            <feBlend mode="normal" in="SourceGraphic" in2="effect1_backgroundBlur_701:49" result="shape"/>
            <feColorMatrix in="SourceAlpha" type="matrix" values="0 0 0 0 0 0 0 0 0 0 0 0 0 0 0 0 0 0 127 0" result="hardAlpha"/>
            <feOffset dx="0.2" dy="0.1"/>
            <feGaussianBlur stdDeviation="0.5"/>
            <feComposite in2="hardAlpha" operator="arithmetic" k2="-1" k3="1"/>
            <feColorMatrix type="matrix" values="0 0 0 0 1 0 0 0 0 1 0 0 0 0 1 0 0 0 0.6 0"/>
            <feBlend mode="normal" in2="shape" result="effect2_innerShadow_701:49"/>
        </filter>
        <linearGradient id="paint0_linear_701:49" x1="47.5535" y1="97.1802" x2="199.357" y2="78.8071" gradientUnits="userSpaceOnUse">
            <stop stop-color="#0B5CD6"/>
            <stop offset="1" stop-color="#0085FF"/>
        </linearGradient>
        <linearGradient id="paint1_linear_701:49" x1="-132.156" y1="211.363" x2="278.359" y2="211.363" gradientUnits="userSpaceOnUse">
            <stop stop-color="#E90000"/>
            <stop offset="1" stop-color="#6F40D3"/>
        </linearGradient>
    </defs>
    <path d="M168.062 58.1351C180.83 62.0333 190.924 69.7921 198.307 81.2992C205.475 92.5065 208.685 104.951 207.045 118.407C204.37 140.409 192.957 155.702 173.626 164.473C167.67 167.171 161.393 168.783 154.83 168.596C153.618 168.558 153.689 169.27 153.689 170.095C153.689 174.705 153.653 179.316 153.725 183.926C153.76 186.587 153.332 188.911 150.907 190.298C148.411 191.722 146.271 190.71 144.131 189.211C134.786 182.614 125.406 176.092 116.026 169.495C115.099 168.821 114.172 168.558 113.066 168.558C103.686 168.446 94.306 169.083 84.9617 168.258C69.6612 166.872 57.1069 159.712 47.5129 147.118C38.5252 135.311 34.7447 121.705 36.2426 106.637C37.5622 93.1812 42.9834 81.6741 52.1851 72.266C61.3511 62.8204 72.4074 57.4604 85.247 56.261C85.5323 56.2235 85.8176 56.1111 86.103 55.9986C109.821 55.9986 133.574 55.9986 157.291 55.9986C160.858 56.6733 164.496 57.0481 168.062 58.1351Z" fill="url(#paint0_linear_701:49)"/>
    <g filter="url(#filter0_bi_701:49)">
        <path d="M75.3702 0C99.0878 0 122.841 0 146.559 0C146.844 0.0749648 147.129 0.224894 147.414 0.262377C160.254 1.46181 171.275 6.8218 180.476 16.2674C189.678 25.7129 195.099 37.1826 196.419 50.6387C197.881 65.7067 194.136 79.3128 185.113 91.1572C175.519 103.714 163 110.91 147.664 112.297C138.32 113.159 128.94 112.522 119.56 112.597C118.454 112.597 117.527 112.86 116.6 113.534C107.255 120.131 97.8395 126.653 88.4951 133.25C86.3552 134.749 84.2152 135.799 81.7187 134.337C79.2934 132.95 78.8654 130.589 78.9011 127.965C78.9724 123.355 78.9011 118.744 78.9368 114.134C78.9368 113.272 79.0081 112.597 77.7955 112.635C71.233 112.785 64.9202 111.21 58.9997 108.512C39.6691 99.7032 28.2204 84.4104 25.5812 62.3707C23.9406 48.952 27.1505 36.4704 34.3192 25.2631C41.702 13.756 51.831 5.99719 64.5636 2.09901C68.0944 1.04951 71.768 0.674683 75.3702 0Z" fill="#BCE4F1" fill-opacity="0.5"/>
    </g>
    <ellipse cx="69.6294" cy="55.9054" rx="13.3406" ry="13.9764" fill="white"/>
    <ellipse cx="109.651" cy="55.9054" rx="13.3406" ry="13.9764" fill="white"/>
    <ellipse cx="149.673" cy="55.9054" rx="13.3406" ry="13.9764" fill="white"/>
    <path d="M2.4043 222.139C2.02438 222.165 1.6698 222.075 1.34054 221.869C0.935305 221.741 0.606049 221.51 0.352775 221.176C0.124828 220.817 0.0108546 220.419 0.0108546 219.982C0.0108546 219.16 0.0741731 215.142 0.20081 207.926C0.226138 206.745 0.188147 204.858 0.0868369 202.264C-0.0144728 199.722 -0.0271365 197.745 0.0488457 196.332C0.0741731 195.793 0.276792 195.344 0.656704 194.984C1.06194 194.625 1.51784 194.458 2.02438 194.483H2.17635C2.4043 194.355 2.64491 194.278 2.89818 194.252C4.06324 194.15 4.98769 194.085 5.67153 194.06C6.35537 194.008 7.31782 193.983 8.55886 193.983C9.7999 193.983 10.8637 194.073 11.7501 194.252C12.6366 194.406 13.6117 194.676 14.6754 195.061C15.7645 195.446 16.727 195.947 17.5628 196.563C19.3357 197.873 20.6274 199.555 21.4379 201.609C22.2737 203.638 22.6536 205.782 22.5776 208.042C22.5016 210.224 22.0204 212.33 21.1339 214.359C20.2221 216.361 18.9684 218.005 17.3728 219.289C15.4732 220.829 12.9025 221.728 9.6606 221.985C8.69816 222.062 7.43179 222.101 5.86149 222.101C4.16455 222.101 3.01215 222.113 2.4043 222.139ZM5.86149 218.249C7.35581 218.249 8.52087 218.21 9.35667 218.133C11.6615 217.954 13.4724 217.337 14.7894 216.284C15.9038 215.386 16.7903 214.192 17.4488 212.702C18.1326 211.187 18.4999 209.582 18.5505 207.888C18.6265 206.193 18.3732 204.626 17.7907 203.188C17.1828 201.725 16.2964 200.569 15.1313 199.722C14.1942 199.029 13.0798 198.528 11.7881 198.22C10.4711 197.912 9.19204 197.783 7.951 197.835C6.70996 197.86 5.32961 197.937 3.80997 198.066C3.78464 198.81 3.80997 200.158 3.88595 202.11C3.98726 204.909 4.02525 206.873 3.99992 208.003C3.99992 208.773 3.98726 209.852 3.96193 211.239C3.9366 212.6 3.91128 213.858 3.88595 215.013C3.86062 216.169 3.84796 217.247 3.84796 218.249H5.86149ZM28.7518 217.555C28.0173 216.451 27.5234 214.808 27.2701 212.625C27.1182 211.008 27.0802 209.094 27.1562 206.886C27.2068 205.448 27.3081 203.509 27.4601 201.07C27.6374 198.631 27.7387 197.051 27.764 196.332C27.764 195.793 27.954 195.344 28.3339 194.984C28.7138 194.625 29.1697 194.445 29.7016 194.445C30.2334 194.445 30.6767 194.638 31.0312 195.023C31.3858 195.408 31.5631 195.87 31.5631 196.409C31.5378 197.103 31.4365 198.682 31.2592 201.147C31.1072 203.612 31.0059 205.564 30.9553 207.002C30.8793 209.056 30.9173 210.789 31.0692 212.202C31.2212 213.768 31.4871 214.834 31.867 215.399C32.7535 216.682 33.9566 217.543 35.4762 217.979C36.9958 218.39 38.5028 218.326 39.9972 217.787C41.5168 217.247 42.6945 216.323 43.5303 215.013C44.898 212.959 45.6198 210.147 45.6958 206.578C45.7211 205.294 45.6832 203.599 45.5818 201.494C45.4299 198.772 45.3412 197.077 45.3159 196.409C45.3159 195.87 45.4932 195.408 45.8478 195.023C46.2024 194.638 46.6456 194.445 47.1775 194.445C47.7094 194.445 48.1652 194.625 48.5452 194.984C48.9251 195.344 49.115 195.793 49.115 196.332C49.1403 196.949 49.2163 198.592 49.343 201.263C49.4696 203.471 49.5203 205.281 49.4949 206.694C49.3936 210.982 48.4692 214.474 46.7216 217.17C45.7591 218.634 44.4674 219.79 42.8465 220.637C41.2509 221.484 39.6046 221.959 37.9076 222.062C36.2107 222.165 34.5264 221.844 32.8548 221.099C31.1832 220.329 29.8155 219.148 28.7518 217.555ZM65.1253 220.136C65.1253 220.675 64.9354 221.125 64.5555 221.484C64.1755 221.844 63.7197 222.024 63.1878 222.024C62.6559 222.024 62.2127 221.831 61.8581 221.446C61.5035 221.061 61.3262 220.598 61.3262 220.059C61.3515 219.16 61.3389 215.527 61.2882 209.159C61.2629 204.511 61.3389 200.916 61.5162 198.374C58.7555 198.348 56.4254 198.374 54.5258 198.451C53.9939 198.476 53.538 198.31 53.1581 197.95C52.7782 197.565 52.5756 197.116 52.5503 196.602C52.5249 196.063 52.6896 195.6 53.0442 195.215C53.4241 194.83 53.8673 194.625 54.3738 194.599C56.552 194.522 59.5786 194.496 63.4537 194.522C67.3288 194.548 70.3554 194.548 72.5336 194.522C73.0655 194.522 73.5214 194.702 73.9013 195.061C74.2812 195.421 74.4711 195.87 74.4711 196.409C74.4711 196.949 74.2939 197.411 73.9393 197.796C73.5847 198.181 73.1415 198.374 72.6096 198.374C70.8113 198.399 68.3799 198.412 65.3153 198.412C65.138 200.877 65.062 204.447 65.0873 209.12C65.138 215.514 65.1507 219.186 65.1253 220.136ZM114.328 220.252C114.303 220.791 114.1 221.24 113.72 221.6C113.34 221.959 112.885 222.126 112.353 222.101C111.821 222.075 111.378 221.869 111.023 221.484C110.668 221.099 110.504 220.637 110.529 220.098C110.63 219.327 110.668 216.259 110.643 210.892C110.618 205.525 110.605 202.457 110.605 201.686C108.655 204.254 106.401 207.541 103.843 211.547C103.564 212.009 103.159 212.291 102.627 212.394C102.12 212.497 101.652 212.407 101.221 212.125C101.196 212.099 101.171 212.086 101.145 212.086C100.917 211.932 100.727 211.752 100.575 211.547C99.5117 210.032 97.7135 207.734 95.1807 204.652L92.7113 201.648C92.7873 203.574 92.8253 205.782 92.8253 208.273C92.8253 209.505 92.8 211.444 92.7493 214.089C92.724 216.734 92.7113 218.737 92.7113 220.098C92.7113 220.637 92.5214 221.099 92.1415 221.484C91.7869 221.844 91.3436 222.024 90.8118 222.024C90.2799 222.024 89.824 221.844 89.4441 221.484C89.0895 221.099 88.9122 220.637 88.9122 220.098C88.9122 218.737 88.9249 216.734 88.9502 214.089C89.0008 211.444 89.0262 209.492 89.0262 208.234C89.0262 203.432 88.8742 199.568 88.5703 196.64C88.5196 196.101 88.6589 195.626 88.9882 195.215C89.3174 194.804 89.748 194.573 90.2799 194.522C90.5332 194.496 90.7738 194.522 91.0017 194.599C91.5842 194.625 92.0655 194.869 92.4454 195.331L98.1061 202.148C99.7017 204.074 101.044 205.756 102.133 207.194C105.527 201.956 108.478 197.963 110.985 195.215C111.086 195.113 111.188 195.023 111.289 194.946C111.694 194.561 112.163 194.381 112.695 194.406C113.227 194.432 113.67 194.638 114.024 195.023C114.379 195.408 114.544 195.87 114.518 196.409C114.417 199.106 114.379 203.111 114.404 208.427C114.455 213.717 114.43 217.658 114.328 220.252ZM129.801 222.255C127.927 222.126 126.293 221.741 124.9 221.099C123.507 220.457 122.444 219.648 121.709 218.672C120.975 217.697 120.443 216.798 120.113 215.976C119.784 215.155 119.582 214.346 119.506 213.55C119.43 212.728 119.468 211.675 119.62 210.391C119.797 209.313 120.164 208.247 120.721 207.194C121.304 206.141 122.064 205.204 123.001 204.382C123.963 203.535 125.116 202.893 126.458 202.457C127.8 201.994 129.231 201.853 130.751 202.033C132.22 202.213 133.474 202.624 134.512 203.265C135.551 203.882 136.437 204.678 137.171 205.654C137.805 206.475 138.185 207.092 138.311 207.502C138.463 207.913 138.59 208.298 138.691 208.658C138.818 209.017 138.919 209.326 138.995 209.582C139.071 209.839 139.134 210.109 139.185 210.391C139.261 210.648 139.312 210.956 139.337 211.316C139.362 211.804 139.274 212.253 139.071 212.664C138.868 213.075 138.564 213.396 138.159 213.627C137.83 213.755 137.475 213.819 137.096 213.819L130.599 213.935C126.04 213.961 123.761 214.012 123.761 214.089H123.647C123.976 215.399 124.66 216.426 125.698 217.17C126.762 217.915 128.206 218.352 130.029 218.48C131.017 218.531 131.84 218.48 132.499 218.326C133.233 218.12 133.765 217.941 134.094 217.787C134.423 217.607 134.829 217.376 135.31 217.093C135.791 216.914 136.272 216.939 136.754 217.17C137.235 217.401 137.564 217.761 137.741 218.249C137.919 218.737 137.893 219.212 137.665 219.674C137.463 220.136 137.133 220.496 136.678 220.752C136.272 220.984 135.854 221.189 135.424 221.369C134.993 221.523 134.36 221.715 133.524 221.946C132.689 222.178 131.447 222.28 129.801 222.255ZM123.723 210.314C125.192 210.237 129.003 210.16 135.158 210.083C134.93 209.313 134.563 208.581 134.056 207.888C133.043 206.706 131.789 206.026 130.295 205.846C128.725 205.641 127.344 205.987 126.154 206.886C124.964 207.759 124.153 208.902 123.723 210.314ZM147.003 222.062C145.129 221.728 143.773 220.958 142.938 219.751C142.532 219.212 142.241 218.493 142.064 217.594L141.912 216.747C141.861 216.49 141.811 216.284 141.76 216.13C141.608 215.642 141.659 215.167 141.912 214.705C142.165 214.243 142.545 213.948 143.052 213.819C143.558 213.691 144.039 213.742 144.495 213.973C144.951 214.204 145.255 214.577 145.407 215.09C145.483 215.373 145.559 215.694 145.635 216.053C145.66 216.182 145.673 216.31 145.673 216.438C145.698 216.541 145.749 216.734 145.825 217.016C145.901 217.35 146.078 217.633 146.357 217.864C146.661 218.146 147.117 218.326 147.725 218.403C148.738 218.608 149.827 218.583 150.992 218.326C152.132 218.069 153.018 217.697 153.651 217.209C154.107 216.798 154.297 216.374 154.221 215.938C154.145 215.219 153.702 214.68 152.891 214.32C152.385 214.089 151.068 213.781 148.94 213.396C146.737 212.959 145.179 212.394 144.267 211.701C142.596 210.443 142.051 208.568 142.634 206.077C142.988 204.639 143.71 203.586 144.799 202.919C145.914 202.226 147.142 201.84 148.484 201.763C149.624 201.712 150.777 201.853 151.942 202.187C153.132 202.495 154.145 202.932 154.981 203.497C155.259 203.702 155.551 203.946 155.855 204.228C156.159 204.511 156.45 204.819 156.728 205.153C157.032 205.487 157.21 205.666 157.26 205.692C157.64 206.077 157.83 206.527 157.83 207.04C157.83 207.528 157.64 207.965 157.26 208.35C156.906 208.709 156.463 208.889 155.931 208.889C155.424 208.889 154.981 208.709 154.601 208.35C154.348 208.119 154.094 207.875 153.841 207.618L153.309 206.963C153.157 206.835 152.98 206.706 152.777 206.578C152.296 206.27 151.676 206.013 150.916 205.808C150.156 205.577 149.409 205.474 148.674 205.5C147.332 205.577 146.56 206.052 146.357 206.925C146.129 207.849 146.205 208.453 146.585 208.735C147.041 209.069 148.066 209.403 149.662 209.736C152.018 210.147 153.626 210.545 154.487 210.93C156.564 211.881 157.742 213.408 158.02 215.514C158.248 217.235 157.615 218.724 156.121 219.982C154.981 220.932 153.537 221.587 151.79 221.946C150.118 222.332 148.522 222.37 147.003 222.062ZM165.813 222.062C163.939 221.728 162.584 220.958 161.748 219.751C161.342 219.212 161.051 218.493 160.874 217.594L160.722 216.747C160.671 216.49 160.621 216.284 160.57 216.13C160.418 215.642 160.469 215.167 160.722 214.705C160.975 214.243 161.355 213.948 161.862 213.819C162.368 213.691 162.849 213.742 163.305 213.973C163.761 214.204 164.065 214.577 164.217 215.09C164.293 215.373 164.369 215.694 164.445 216.053C164.47 216.182 164.483 216.31 164.483 216.438C164.508 216.541 164.559 216.734 164.635 217.016C164.711 217.35 164.888 217.633 165.167 217.864C165.471 218.146 165.927 218.326 166.535 218.403C167.548 218.608 168.637 218.583 169.802 218.326C170.942 218.069 171.828 217.697 172.461 217.209C172.917 216.798 173.107 216.374 173.031 215.938C172.955 215.219 172.512 214.68 171.701 214.32C171.195 214.089 169.878 213.781 167.75 213.396C165.547 212.959 163.989 212.394 163.077 211.701C161.406 210.443 160.861 208.568 161.444 206.077C161.798 204.639 162.52 203.586 163.609 202.919C164.724 202.226 165.952 201.84 167.294 201.763C168.434 201.712 169.587 201.853 170.752 202.187C171.942 202.495 172.955 202.932 173.791 203.497C174.07 203.702 174.361 203.946 174.665 204.228C174.969 204.511 175.26 204.819 175.539 205.153C175.842 205.487 176.02 205.666 176.07 205.692C176.45 206.077 176.64 206.527 176.64 207.04C176.64 207.528 176.45 207.965 176.07 208.35C175.716 208.709 175.273 208.889 174.741 208.889C174.234 208.889 173.791 208.709 173.411 208.35C173.158 208.119 172.904 207.875 172.651 207.618L172.119 206.963C171.967 206.835 171.79 206.706 171.587 206.578C171.106 206.27 170.486 206.013 169.726 205.808C168.966 205.577 168.219 205.474 167.484 205.5C166.142 205.577 165.37 206.052 165.167 206.925C164.939 207.849 165.015 208.453 165.395 208.735C165.851 209.069 166.877 209.403 168.472 209.736C170.828 210.147 172.436 210.545 173.297 210.93C175.374 211.881 176.552 213.408 176.83 215.514C177.058 217.235 176.425 218.724 174.931 219.982C173.791 220.932 172.347 221.587 170.6 221.946C168.928 222.332 167.332 222.37 165.813 222.062ZM191.119 221.446C190.208 221.805 189.169 222.011 188.004 222.062C186.864 222.113 185.801 221.985 184.813 221.677C183.825 221.343 182.951 220.842 182.191 220.175C180.874 219.071 180.026 217.697 179.646 216.053C179.266 214.41 179.253 212.933 179.608 211.624C179.963 210.314 180.494 209.043 181.204 207.811C181.938 206.552 182.723 205.5 183.559 204.652C184.42 203.779 185.408 203.047 186.522 202.457C187.637 201.866 188.802 201.584 190.018 201.609C191.233 201.609 192.512 201.943 193.855 202.611C194.057 202.713 194.273 202.867 194.501 203.073C194.754 203.278 194.969 203.458 195.146 203.612L195.64 204.113C195.792 204.267 195.868 204.357 195.868 204.382C196.273 204.742 196.489 205.204 196.514 205.769C196.843 207.31 197.059 208.928 197.16 210.622C197.261 212.317 197.287 213.909 197.236 215.399C197.211 216.888 197.236 218.467 197.312 220.136C197.337 220.65 197.173 221.099 196.818 221.484C196.463 221.869 196.02 222.075 195.488 222.101C194.956 222.126 194.501 221.959 194.121 221.6C193.741 221.24 193.538 220.804 193.513 220.29V219.712C192.753 220.508 191.955 221.086 191.119 221.446ZM189.41 217.979C189.79 217.876 190.094 217.774 190.322 217.671C190.549 217.568 190.828 217.414 191.157 217.209C191.512 217.003 191.879 216.747 192.259 216.438C192.639 216.13 192.981 215.745 193.285 215.283C193.335 215.232 193.399 215.18 193.475 215.129C193.475 211.662 193.259 208.876 192.829 206.771C192.753 206.668 192.664 206.578 192.563 206.501C192.487 206.398 192.424 206.321 192.373 206.27C192.348 206.218 192.297 206.18 192.221 206.154C192.17 206.103 192.107 206.052 192.031 206C190.815 205.333 189.536 205.32 188.194 205.962C186.852 206.578 185.674 207.746 184.661 209.467C183.648 211.213 183.141 212.741 183.141 214.05C183.167 215.334 183.66 216.4 184.623 217.247C185.205 217.735 185.927 218.043 186.788 218.172C187.649 218.3 188.523 218.236 189.41 217.979ZM210.701 229.958C209.231 230.087 207.813 229.92 206.445 229.457C205.103 228.995 203.988 228.186 203.102 227.031C202.773 226.594 202.494 226.055 202.266 225.413C202.063 224.771 202.089 224.206 202.342 223.718C202.595 223.256 202.963 222.948 203.444 222.794C203.95 222.64 204.432 222.691 204.887 222.948C205.369 223.205 205.685 223.577 205.837 224.065C205.888 224.27 205.951 224.54 206.027 224.874C206.103 225.233 206.382 225.58 206.863 225.914C208.003 226.325 209.256 226.504 210.625 226.453C211.866 226.402 212.816 226.132 213.475 225.644C214.133 225.182 214.551 224.643 214.728 224.026C214.982 223.153 215.184 221.767 215.336 219.867C214.374 220.894 212.917 221.51 210.967 221.715C209.294 221.792 207.787 221.561 206.445 221.022C205.128 220.457 204.077 219.661 203.292 218.634C202.532 217.607 201.975 216.464 201.62 215.206C201.266 213.999 201.139 212.484 201.24 210.661C201.443 207.836 202.532 205.564 204.508 203.843C206.711 202.071 209.37 201.442 212.487 201.956C213.627 202.341 214.526 202.803 215.184 203.343C215.209 202.315 215.691 201.686 216.628 201.455C217.236 201.404 217.717 201.545 218.071 201.879C218.451 202.213 218.679 202.636 218.755 203.15C219.034 206.283 219.199 210.109 219.249 214.628C219.275 217.196 219.199 219.34 219.021 221.061C218.819 223.628 218.223 225.541 217.236 226.8C216.248 228.084 215.26 228.892 214.272 229.226C213.285 229.586 212.094 229.83 210.701 229.958ZM210.701 217.787C211.638 217.812 212.36 217.697 212.867 217.44C214.336 216.978 215.184 215.758 215.412 213.781C215.539 212.266 215.475 210.815 215.222 209.428C215.045 208.555 214.526 207.798 213.665 207.156C213.158 206.745 212.512 206.475 211.727 206.347C209.7 205.987 208.142 206.296 207.053 207.271C206.015 208.119 205.419 209.364 205.267 211.008C205.141 213.164 205.559 214.846 206.521 216.053C207.509 217.235 208.902 217.812 210.701 217.787ZM233.46 222.255C231.586 222.126 229.952 221.741 228.559 221.099C227.166 220.457 226.102 219.648 225.368 218.672C224.633 217.697 224.102 216.798 223.772 215.976C223.443 215.155 223.24 214.346 223.164 213.55C223.088 212.728 223.126 211.675 223.278 210.391C223.456 209.313 223.823 208.247 224.38 207.194C224.963 206.141 225.722 205.204 226.66 204.382C227.622 203.535 228.774 202.893 230.117 202.457C231.459 201.994 232.89 201.853 234.41 202.033C235.879 202.213 237.132 202.624 238.171 203.265C239.209 203.882 240.096 204.678 240.83 205.654C241.463 206.475 241.843 207.092 241.97 207.502C242.122 207.913 242.249 208.298 242.35 208.658C242.477 209.017 242.578 209.326 242.654 209.582C242.73 209.839 242.793 210.109 242.844 210.391C242.92 210.648 242.97 210.956 242.996 211.316C243.021 211.804 242.932 212.253 242.73 212.664C242.527 213.075 242.223 213.396 241.818 213.627C241.489 213.755 241.134 213.819 240.754 213.819L234.258 213.935C229.699 213.961 227.419 214.012 227.419 214.089H227.305C227.635 215.399 228.319 216.426 229.357 217.17C230.421 217.915 231.864 218.352 233.688 218.48C234.676 218.531 235.499 218.48 236.157 218.326C236.892 218.12 237.424 217.941 237.753 217.787C238.082 217.607 238.487 217.376 238.969 217.093C239.45 216.914 239.931 216.939 240.412 217.17C240.894 217.401 241.223 217.761 241.4 218.249C241.577 218.737 241.552 219.212 241.324 219.674C241.122 220.136 240.792 220.496 240.336 220.752C239.931 220.984 239.513 221.189 239.083 221.369C238.652 221.523 238.019 221.715 237.183 221.946C236.347 222.178 235.106 222.28 233.46 222.255ZM227.381 210.314C228.85 210.237 232.662 210.16 238.817 210.083C238.589 209.313 238.222 208.581 237.715 207.888C236.702 206.706 235.448 206.026 233.954 205.846C232.384 205.641 231.003 205.987 229.813 206.886C228.622 207.759 227.812 208.902 227.381 210.314Z" fill="url(#paint1_linear_701:49)"/>
</svg>
