<svg width="279" height="91" viewBox="0 0 279 91" fill="none" xmlns="http://www.w3.org/2000/svg">
    <defs>
        <linearGradient id="paint0_linear" x1="40.8478" y1="60.15" x2="35.6692" y2="39.2794" gradientUnits="userSpaceOnUse">
            <stop stop-opacity="0"/>
            <stop offset="0.99"/>
        </linearGradient>
        <linearGradient id="paint1_linear" x1="7234.2" y1="1899.97" x2="7328.54" y2="1642.28" gradientUnits="userSpaceOnUse">
            <stop stop-opacity="0"/>
            <stop offset="0.99"/>
        </linearGradient>
        <linearGradient id="paint2_linear" x1="4321.3" y1="1889.18" x2="4348.87" y2="1324.01" gradientUnits="userSpaceOnUse">
            <stop stop-opacity="0"/>
            <stop offset="0.99"/>
        </linearGradient>
        <linearGradient id="paint3_linear" x1="1323.88" y1="932.547" x2="1358.3" y2="929.393" gradientUnits="userSpaceOnUse">
            <stop stop-opacity="0"/>
            <stop offset="0.99"/>
        </linearGradient>
        <linearGradient id="paint4_linear" x1="3420.47" y1="932.547" x2="3386.07" y2="929.397" gradientUnits="userSpaceOnUse">
            <stop stop-opacity="0"/>
            <stop offset="0.99"/>
        </linearGradient>
        <linearGradient id="paint5_linear" x1="8673.04" y1="6769.11" x2="7642.01" y2="3494.67" gradientUnits="userSpaceOnUse">
            <stop stop-opacity="0"/>
            <stop offset="0.99"/>
        </linearGradient>
    </defs>
    <path opacity="0.18" d="M87.0848 43.5651C87.0847 51.2308 85.0633 58.7607 81.2245 65.3949C77.3858 72.029 71.8656 77.5325 65.2213 81.3496C58.5769 85.1668 51.0436 87.1627 43.3818 87.1356C35.72 87.1086 28.201 85.0596 21.5837 81.1956L23.3615 82.8076L1.99309 90.1447L9.20849 70.3567C4.94387 64.8862 2.04677 58.4758 0.7583 51.659C-0.530173 44.8422 -0.172762 37.816 1.80079 31.1653C3.77434 24.5146 7.30696 18.4316 12.1047 13.4226C16.9024 8.41355 22.8264 4.62338 29.3837 2.36746C35.9411 0.11155 42.9421 -0.544862 49.8043 0.452849C56.6664 1.45056 63.1911 4.07354 68.8354 8.10351C74.4798 12.1335 79.0805 17.4539 82.2547 23.622C85.429 29.7901 87.0849 36.6274 87.0848 43.5651V43.5651Z" fill="#2673D1"/>
    <path d="M36.1393 58.2393C36.1393 58.2393 24.1669 58.4825 18.0835 68.4807C18.0835 68.4807 14.9098 82.6894 15.3057 85.7188L23.153 82.1614C23.3891 82.8075 34.9171 87.3655 44.9659 86.9138C63.5009 86.087 71.8969 76.6933 71.8969 76.6933C71.8969 76.6933 69.9316 63.36 58.9453 60.3307C47.959 57.3013 36.1393 58.2393 36.1393 58.2393Z" fill="#2673D1"/>
    <path d="M36.0561 57.6418C36.0561 57.6418 33.4658 58.0378 33.5491 59.9138C33.6324 61.7898 33.9449 67.4385 36.8547 66.0836C39.7645 64.7288 42.2298 60.6294 42.2298 60.6294L36.0561 57.6418Z" fill="white"/>
    <path d="M49.5078 57.6418C49.5078 57.6418 52.0982 58.0378 52.0218 59.9138C51.9454 61.7898 51.619 67.4385 48.7162 66.0836C45.8133 64.7288 43.3411 60.6294 43.3411 60.6294L49.5078 57.6418Z" fill="white"/>
    <path d="M26.2643 30.6C26.2643 30.6 23.3198 49.2416 30.7227 51.6248C31.5301 52.105 32.4274 52.4145 33.3591 52.534C34.2908 52.6535 35.237 52.5805 36.1394 52.3196V58.2115C36.1394 58.2115 43.6187 63.8672 49.7508 57.8155V42.6479C49.7508 42.6479 49.0563 33.3723 47.2021 34.3589C46.7785 34.5952 43.0354 34.2061 42.4243 27.4109C42.4243 27.4109 33.8269 23.5895 29.8477 26.2158C25.8684 28.8422 26.2643 30.6 26.2643 30.6Z" fill="#F7AF87"/>
    <path d="M24.4518 29.9747C24.9018 30.7925 25.512 31.5111 26.2458 32.0877C26.9795 32.6643 27.822 33.087 28.7227 33.3306C29.6305 33.5472 30.5836 33.471 31.4455 33.1128C32.3074 32.7546 33.034 32.1329 33.5214 31.3366C34.265 32.3811 35.3667 33.1155 36.6165 33.3999C37.8664 33.6843 39.1772 33.4989 40.2993 32.879C41.2854 34.2686 43.1674 34.6508 44.8549 34.5465C47.0183 34.4492 49.0785 33.5932 50.6744 32.1286C51.4501 31.3869 52.0422 30.4745 52.4039 29.4638C52.7655 28.4531 52.8867 27.3719 52.7578 26.3062C52.3897 23.8118 50.5078 21.8039 48.4938 20.2961C45.3103 17.869 41.5368 16.3363 37.5631 15.8563C33.9728 15.4534 28.2365 15.8563 25.4865 18.5661C22.7365 21.2758 22.4865 26.6675 24.4518 29.9747Z" fill="#DD6034"/>
    <path d="M36.1394 52.3752C36.1394 52.3752 40.6742 51.1801 42.3478 49.1096C42.3478 49.1096 40.0353 58.1907 36.1394 58.2671V52.3752Z" fill="url(#paint0_linear)"/>
    <path d="M45.3409 31.9341L45.6672 38.361L46.9589 36.5962C47.1534 36.3252 47.4173 36.0334 47.7437 36.089C48.0701 36.1446 48.1465 36.3739 48.2576 36.5962C48.7612 37.6319 48.9405 38.7956 48.7719 39.9349C48.6034 41.0742 48.0949 42.1361 47.3131 42.9814C47.0378 43.2189 46.8134 43.5096 46.6534 43.8361C46.5758 44.1187 46.5569 44.4143 46.5978 44.7046C46.7298 46.5805 49.4937 48.783 49.9659 47.4212C50.4382 46.0594 50.5284 44.5795 50.9729 43.2038C51.6761 41.4341 52.6637 39.7912 53.8966 38.3402C55.1415 36.8841 56.0856 35.1956 56.6744 33.3723C57.1327 31.5241 56.7716 29.3494 55.2855 28.1335C55.0064 27.955 54.7694 27.7179 54.591 27.4387C54.5063 27.2167 54.4616 26.9815 54.4591 26.7439C54.2943 24.4357 53.3404 22.2545 51.7576 20.5671C50.9614 19.7337 49.9976 19.0786 48.9299 18.6451C47.8621 18.2115 46.7146 18.0094 45.5631 18.0519C45.173 18.0543 44.7885 18.1445 44.4381 18.3159C44.1189 18.5369 43.8496 18.8223 43.6474 19.1538C43.4453 19.4853 43.3148 19.8555 43.2644 20.2405C42.5214 23.7146 44.1325 27.1886 44.7367 30.7182" fill="#DD6034"/>
    <path opacity="0.18" d="M183.406 43.5651C183.404 51.2309 181.382 58.7608 177.542 65.3946C173.703 72.0285 168.182 77.5316 161.537 81.3486C154.892 85.1656 147.359 87.1614 139.697 87.1345C132.035 87.1076 124.516 85.0591 117.898 81.1956L119.676 82.8075L98.2864 90.1447L105.495 70.3567C101.232 64.8858 98.337 58.4755 97.05 51.6593C95.7631 44.843 96.1216 37.8178 98.0959 31.1682C100.07 24.5186 103.603 18.4368 108.401 13.4288C113.198 8.42079 119.122 4.63144 125.678 2.37599C132.235 0.120531 139.235 -0.53581 146.096 0.461568C152.958 1.45895 159.482 4.08121 165.126 8.11018C170.77 12.1392 175.37 17.4583 178.545 23.6252C181.72 29.7921 183.377 36.6283 183.378 43.5651H183.406Z" fill="#2673D1"/>
    <path d="M132.259 58.2394C132.259 58.2394 120.287 58.4825 114.203 68.4807C114.203 68.4807 110.037 82.8076 110.453 85.8508L119.704 82.8215C124.315 85.3992 131.238 87.3724 141.086 86.9278C159.656 86.101 168.017 76.6864 168.017 76.6864C168.017 76.6864 166.051 63.3531 155.065 60.3238C144.079 57.2944 132.259 58.2394 132.259 58.2394Z" fill="#2673D1"/>
    <path d="M158.287 42.3005C159.794 34.6021 161.148 22.721 155.85 20.2892L152.377 20.1294C152.377 20.1294 149.829 14.2235 139.62 15.1824C129.412 16.1412 119.12 24.7498 123.773 38.7362C126.19 45.9899 121.898 56.544 121.898 56.544L136.912 56.4884L160.093 55.7519C158.018 51.5921 157.383 46.8606 158.287 42.3005V42.3005Z" fill="#404040"/>
    <path d="M156.009 30.4541C156.009 30.4541 158.954 49.0957 151.551 51.4858C150.744 51.9668 149.847 52.2767 148.915 52.3963C147.983 52.5158 147.037 52.4424 146.134 52.1806V58.0795C146.134 58.0795 138.655 63.7352 132.523 57.6765V42.4603C132.523 42.4603 133.217 33.1917 135.072 34.1783C135.495 34.4076 139.238 34.0185 139.849 27.2303C139.849 27.2303 148.447 23.4019 152.426 26.0352C156.405 28.6685 156.009 30.4541 156.009 30.4541Z" fill="#F7AF87"/>
    <path d="M146.134 52.2015C146.134 52.2015 141.6 51.0064 139.926 48.9359C139.926 48.9359 142.232 58.017 146.134 58.1004V52.2015Z" fill="url(#paint1_linear)"/>
    <path d="M149.85 25.0486C147.551 25.0486 145.051 25.3751 143.433 27.001C141.433 29.0089 141.481 32.205 140.606 34.9009C139.96 36.9548 138.667 38.7441 136.919 40.0007C136.044 40.618 135.054 41.0545 134.009 41.2848C132.963 41.515 131.882 41.5344 130.828 41.3417C130.612 41.3189 130.403 41.2523 130.213 41.146C130.023 41.0397 129.857 40.8959 129.724 40.7233C129.578 40.4115 129.527 40.0634 129.578 39.7228C129.78 35.9014 130.231 31.948 132.204 28.6754C133.304 26.8659 134.824 25.3478 136.634 24.2496C137.686 23.5777 138.87 23.1416 140.106 22.9711C142.537 22.6932 144.898 23.7771 147.1 24.8401" fill="#404040"/>
    <path d="M132.183 57.6418C132.183 57.6418 129.592 58.0378 129.676 59.9138C129.759 61.7898 130.072 67.4385 132.981 66.0836C135.891 64.7288 138.357 60.6294 138.357 60.6294L132.183 57.6418Z" fill="white"/>
    <path d="M145.634 57.6418C145.634 57.6418 148.224 58.0378 148.148 59.9138C148.072 61.7898 147.745 67.4385 144.842 66.0836C141.94 64.7288 139.467 60.6294 139.467 60.6294L145.634 57.6418Z" fill="white"/>
    <path d="M138.766 69.5229C139.56 69.5229 140.204 68.879 140.204 68.0847C140.204 67.2903 139.56 66.6464 138.766 66.6464C137.972 66.6464 137.329 67.2903 137.329 68.0847C137.329 68.879 137.972 69.5229 138.766 69.5229Z" fill="white"/>
    <path d="M138.766 74.6089C139.56 74.6089 140.204 73.965 140.204 73.1707C140.204 72.3763 139.56 71.7324 138.766 71.7324C137.972 71.7324 137.329 72.3763 137.329 73.1707C137.329 73.965 137.972 74.6089 138.766 74.6089Z" fill="white"/>
    <path d="M138.766 79.6948C139.56 79.6948 140.204 79.0509 140.204 78.2566C140.204 77.4623 139.56 76.8183 138.766 76.8183C137.972 76.8183 137.329 77.4623 137.329 78.2566C137.329 79.0509 137.972 79.6948 138.766 79.6948Z" fill="white"/>
    <path opacity="0.18" d="M278.921 43.5651C278.921 51.2307 276.9 58.7607 273.061 65.3949C269.222 72.029 263.702 77.5324 257.058 81.3496C250.413 85.1668 242.88 87.1626 235.218 87.1356C227.556 87.1085 220.037 85.0596 213.42 81.1956L215.191 82.8075L193.829 90.1447L201.066 70.3567C196.803 64.8858 193.908 58.4755 192.621 51.6593C191.334 44.843 191.692 37.8178 193.667 31.1682C195.641 24.5186 199.174 18.4368 203.971 13.4288C208.769 8.42079 214.692 4.63144 221.249 2.37599C227.806 0.120531 234.806 -0.53581 241.667 0.461568C248.528 1.45895 255.052 4.08121 260.696 8.11018C266.34 12.1392 270.941 17.4583 274.116 23.6252C277.291 29.7921 278.948 36.6283 278.949 43.5651H278.921Z" fill="#2673D1"/>
    <path d="M227.782 58.2394C227.782 58.2394 215.809 58.4825 209.691 68.4807C209.691 68.4807 205.524 82.8076 205.941 85.8508L215.191 82.8215C219.802 85.3992 226.726 87.3724 236.58 86.9278C255.143 86.101 263.505 76.6864 263.505 76.6864C263.505 76.6864 261.539 63.3531 250.553 60.3238C239.567 57.2944 227.782 58.2394 227.782 58.2394Z" fill="#2673D1"/>
    <path d="M228.684 48.0396C228.684 48.0396 228.532 56.5093 227.782 58.2394C227.032 59.9694 233.664 65.2569 240.455 60.428L240.907 58.3088C240.907 58.3088 239.705 52.4239 240.455 47.2893C241.205 42.1547 228.684 48.0396 228.684 48.0396Z" fill="#F7AF87"/>
    <path d="M228.58 49.1513C228.58 49.1513 229.768 54.8418 234.796 55.2378C239.823 55.6338 240.233 53.9316 240.233 53.9316L240.358 46.6361L228.58 49.1513Z" fill="url(#paint2_linear)"/>
    <path d="M221.038 30.8363C220.749 30.6269 220.418 30.4835 220.068 30.4163C219.717 30.3491 219.356 30.3596 219.011 30.4472C218.742 30.5592 218.504 30.733 218.316 30.9544C217.26 32.073 217.316 33.8378 217.622 35.3455C217.81 36.1914 218.065 37.0209 218.386 37.826C218.514 38.1999 218.704 38.5498 218.948 38.8612C219.691 39.7575 221.031 39.8757 222.177 39.7436C222.522 39.7437 222.861 39.6619 223.168 39.5048C223.475 39.3478 223.74 39.12 223.941 38.8404C224.046 38.6007 224.107 38.3442 224.122 38.0831C224.413 35.0468 223.698 32.4482 221.038 30.8363Z" fill="#F7AF87"/>
    <path d="M249.74 32.0731C250.594 31.4755 251.705 31.017 252.664 31.4269C253.039 31.6163 253.358 31.9007 253.59 32.2517C253.821 32.6027 253.957 33.0082 253.983 33.4279C254.031 34.27 253.884 35.1118 253.553 35.8875C253.226 36.8848 252.709 37.8096 252.032 38.6112C251.34 39.4045 250.371 39.902 249.323 40.0008C248.8 40.04 248.277 39.9304 247.814 39.6845C247.35 39.4386 246.966 39.0664 246.705 38.6112C246.45 38.0003 246.332 37.3411 246.358 36.6796C246.31 36.1681 246.369 35.6523 246.532 35.1649C246.941 34.1575 248.865 32.6775 249.74 32.0731Z" fill="#F7AF87"/>
    <path d="M248.858 34.9287C247.775 44.0097 242.726 51.4858 235.171 51.4858C227.615 51.4858 221.49 44.0723 221.49 34.9287C221.49 25.7851 226.351 15.4742 233.907 15.4742C241.462 15.4742 251.067 16.3566 248.858 34.9287Z" fill="#F7AF87"/>
    <path d="M221.497 30.7529L221.622 32.7818C221.622 33.1014 221.726 33.4766 222.038 33.5669C222.351 33.6572 222.656 33.0944 222.663 32.6775C222.663 31.01 222.142 29.1271 223.177 27.8139C223.436 27.5576 223.669 27.276 223.872 26.9732C224.302 26.1047 223.649 25 224.038 24.1106C224.267 23.6034 224.774 23.2908 225.142 22.8669C225.594 22.2047 225.938 21.4755 226.163 20.7061C226.247 20.4473 226.41 20.2213 226.629 20.0599C226.837 19.9729 227.057 19.9145 227.281 19.8862C228.129 19.6708 228.629 18.8023 229.365 18.3507C230.031 18.019 230.776 17.8794 231.518 17.9477C234.413 18.038 237.427 19.0663 240.108 17.9477C241.209 19.514 242.884 20.5825 244.768 20.9215C244.925 20.9308 245.076 20.9837 245.205 21.0743C245.329 21.2237 245.411 21.4037 245.441 21.5954C245.718 22.2063 246.109 22.7582 246.594 23.2213C248.268 25.3057 248.233 28.1891 248.108 30.8641L247.914 35.1094L249.393 32.622C249.545 32.3316 249.745 32.0686 249.983 31.8438C250.254 31.6145 250.615 31.4755 250.782 31.149C250.852 30.9862 250.892 30.812 250.9 30.6348L251.261 26.9941C251.367 26.3381 251.343 25.6677 251.191 25.0208C251.066 24.6178 250.844 24.2496 250.719 23.8466C250.58 23.1065 250.559 22.3491 250.657 21.6024C250.705 21.2284 250.671 20.8484 250.559 20.4886C250.446 20.1288 250.257 19.7977 250.004 19.518C250.49 17.8921 250.948 16.169 250.566 14.5154C250.185 12.8618 248.65 11.354 246.976 11.6042C246.723 11.6715 246.459 11.6904 246.198 11.6597C245.979 11.5844 245.778 11.4637 245.608 11.3054C244.441 10.3853 243.016 9.85114 241.532 9.77683C239.783 9.66566 238.03 9.66566 236.282 9.77683C232.351 10.1034 228.226 9.29047 224.552 10.7079C223.668 11.0342 222.852 11.5245 222.149 12.1531C221.424 12.8938 220.8 13.7279 220.295 14.6335C220.013 15.0363 219.804 15.4855 219.677 15.9606C219.618 16.4823 219.618 17.0091 219.677 17.5308C219.677 19.2748 218.788 21.0049 219.08 22.7071C219.184 23.3394 219.441 23.93 219.531 24.5622C219.58 25.1379 219.58 25.7166 219.531 26.2923C219.483 27.7487 219.739 29.1991 220.281 30.5514C220.372 30.7807 220.517 31.0448 220.767 31.0656C221.017 31.0864 221.274 30.482 221.497 30.7529Z" fill="#404040"/>
    <path d="M223.49 46.0108C223.677 46.851 223.966 47.6653 224.351 48.4356C225.338 50.1106 226.893 51.3754 228.733 52C230.562 52.6087 232.479 52.9161 234.407 52.9102C236.994 52.98 239.582 52.8265 242.143 52.4516C243.059 52.3196 242.99 52.1181 243.726 51.5692C244.914 50.6798 246.275 49.0957 246.504 47.6297C247.24 43.2732 248.469 37.2076 248.289 32.7887C247.108 34.9703 247.122 39.6394 245.407 41.432C244.476 42.3978 243.087 42.7313 241.768 42.9467C237.523 43.6501 233.186 43.5912 228.962 42.773C227.684 42.6281 226.477 42.1111 225.49 41.2861C223.99 39.8062 224.101 37.423 223.774 35.3386C223.642 34.4215 223.288 33.0527 222.281 32.747C221.976 34.5743 222.392 36.5753 222.434 38.4166C222.496 40.9799 222.85 43.5278 223.49 46.0108V46.0108Z" fill="#404040"/>
    <path d="M220.101 33.7475C220.104 33.5389 220.078 33.3308 220.025 33.1292C219.996 33.0288 219.938 32.9396 219.857 32.8737C219.776 32.8078 219.677 32.7684 219.573 32.7609C219.351 32.7609 219.191 32.9694 219.087 33.1639C218.714 33.9879 218.676 34.9252 218.983 35.7764C219.211 36.6446 219.746 37.4003 220.49 37.9025C220.672 38.038 220.888 38.1197 221.114 38.1381C221.34 38.1565 221.566 38.111 221.768 38.0067C222.462 37.5273 222.191 36.1238 221.566 35.7347C221.184 35.4984 220.872 35.5262 220.573 35.1094C220.287 34.7107 220.123 34.2376 220.101 33.7475V33.7475Z" fill="url(#paint3_linear)"/>
    <path d="M250.99 33.7475C250.987 33.5389 251.013 33.3308 251.067 33.1292C251.095 33.0288 251.153 32.9396 251.234 32.8737C251.315 32.8078 251.414 32.7684 251.518 32.7609C251.74 32.7609 251.9 32.9694 252.004 33.1639C252.378 33.9879 252.415 34.9252 252.108 35.7764C251.881 36.6446 251.345 37.4003 250.601 37.9025C250.42 38.038 250.203 38.1197 249.977 38.1381C249.751 38.1565 249.525 38.111 249.323 38.0067C248.629 37.5273 248.907 36.1238 249.525 35.7347C249.907 35.4984 250.219 35.5262 250.518 35.1094C250.804 34.7107 250.968 34.2376 250.99 33.7475V33.7475Z" fill="url(#paint4_linear)"/>
    <path d="M243.24 54.7722C242.545 54.4571 241.778 54.3324 241.018 54.4109C236.33 54.536 231.483 55.5087 227.073 53.9176C226.317 54.652 225.763 55.5683 225.462 56.5787C225.011 58.7118 226.809 60.692 228.754 61.6647C232.039 63.3183 235.886 63.2836 239.553 63.0543C240.99 62.9709 242.546 62.825 243.615 61.8523C245.317 60.3376 245.407 55.9881 243.24 54.7722Z" fill="#2673D1"/>
    <path d="M225.372 58.1629C225.372 58.1629 223.858 61.7828 231.407 61.9357C231.407 61.9357 223.858 62.0885 221.747 63.7491C219.636 65.4097 214.351 67.9735 214.052 71.3016C213.754 74.6297 211.934 83.5302 211.934 83.5302L205.927 85.8369L209.677 68.4668C211.455 65.7711 213.763 63.4668 216.462 61.6951C219.161 59.9233 222.193 58.7214 225.372 58.1629V58.1629Z" fill="url(#paint5_linear)"/>
</svg>
