<svg width="20" height="20" viewBox="0 0 20 20" fill="none" xmlns="http://www.w3.org/2000/svg">
    <path d="M17.5507 8.36791H16.9167V8.33332H9.83338V11.6667H14.2813C13.6324 13.6071 11.8887 15 9.83338 15C7.22554 15 5.11116 12.7612 5.11116 9.99999C5.11116 7.23874 7.22554 4.99999 9.83338 4.99999C11.0372 4.99999 12.1323 5.48082 12.9662 6.26624L15.1923 3.90916C13.7867 2.52207 11.9064 1.66666 9.83338 1.66666C5.48697 1.66666 1.96301 5.39791 1.96301 9.99999C1.96301 14.6021 5.48697 18.3333 9.83338 18.3333C14.1798 18.3333 17.7038 14.6021 17.7038 9.99999C17.7038 9.44124 17.6495 8.89582 17.5507 8.36791Z" fill="#FFC107"/>
    <path d="M2.87042 6.12124L5.45623 8.12916C6.15591 6.29499 7.8504 4.99999 9.83334 4.99999C11.0371 4.99999 12.1323 5.48082 12.9661 6.26624L15.1923 3.90916C13.7866 2.52207 11.9064 1.66666 9.83334 1.66666C6.81033 1.66666 4.18871 3.47374 2.87042 6.12124Z" fill="#FF3D00"/>
    <path d="M9.83338 18.3333C11.8663 18.3333 13.7135 17.5096 15.1101 16.17L12.6742 13.9875C11.8575 14.6451 10.8595 15.0008 9.83338 15C7.7863 15 6.04813 13.6179 5.39331 11.6891L2.82678 13.7829C4.12933 16.4816 6.77456 18.3333 9.83338 18.3333Z" fill="#4CAF50"/>
    <path d="M17.5507 8.3679H16.9167V8.33331H9.83337V11.6666H14.2813C13.9709 12.5902 13.4118 13.3971 12.673 13.9879L12.6742 13.9871L15.1101 16.1696C14.9377 16.3354 17.7037 14.1666 17.7037 9.99998C17.7037 9.44123 17.6494 8.89581 17.5507 8.3679Z" fill="#6C74B7"/>
</svg>
